<svg width="33" height="39" viewBox="0 0 33 39" fill="none" xmlns="http://www.w3.org/2000/svg">
<path d="M31.353 17.5841C29.434 9.13534 27.4526 0.394958 15.1672 0.394958C6.82752 0.394958 0.0419922 7.23517 0.0419922 15.642V38.5126H22.7298V32.795H24.6204C26.7058 32.795 28.4017 31.0854 28.4017 28.9832V23.2655H32.7143C32.7143 23.2655 31.5988 18.6762 31.353 17.5841ZM15.1672 23.2427C15.1672 23.2427 7.60458 17.7004 7.60458 13.5913C7.60458 9.68995 13.4864 7.99371 15.1672 13.1186C16.848 7.99562 22.7298 9.68995 22.7298 13.5913C22.7298 17.7004 15.1672 23.2427 15.1672 23.2427Z" fill="white"/>
</svg>
